<mxfile host="app.diagrams.net" modified="2024-05-19T08:49:50.608Z" agent="Mozilla/5.0 (Windows NT 10.0; Win64; x64) AppleWebKit/537.36 (KHTML, like Gecko) Chrome/124.0.0.0 Safari/537.36" etag="UQQWqkzmR0qyHnHQ0p8i" version="24.4.4" type="github">
  <diagram name="第 1 页" id="sSzg4yru0V2jtsQIOEy3">
    <mxGraphModel dx="2327" dy="1680" grid="1" gridSize="10" guides="1" tooltips="1" connect="1" arrows="1" fold="1" page="1" pageScale="1" pageWidth="827" pageHeight="1169" math="1" shadow="0">
      <root>
        <mxCell id="0" />
        <mxCell id="1" parent="0" />
        <mxCell id="cyQuYEc-j8L6qHEdlNLq-74" value="" style="rounded=0;whiteSpace=wrap;html=1;fontFamily=Helvetica;fontSize=11;labelBackgroundColor=default;fillColor=#d5e8d4;strokeColor=#82b366;" parent="1" vertex="1">
          <mxGeometry x="-700" y="-980" width="250" height="150" as="geometry" />
        </mxCell>
        <mxCell id="vXr8q9D6EJ9TZyVOwcwj-150" value="" style="rounded=0;whiteSpace=wrap;html=1;fillColor=#e1d5e7;strokeColor=#9673a6;" parent="1" vertex="1">
          <mxGeometry x="-1150" y="-980" width="440" height="150" as="geometry" />
        </mxCell>
        <mxCell id="vXr8q9D6EJ9TZyVOwcwj-151" value="" style="shape=table;startSize=0;container=1;collapsible=0;childLayout=tableLayout;fontSize=16;fillColor=#f8cecc;strokeColor=#b85450;" parent="1" vertex="1">
          <mxGeometry x="-545" y="-969.5" width="66.25" height="50" as="geometry" />
        </mxCell>
        <mxCell id="vXr8q9D6EJ9TZyVOwcwj-152" value="" style="shape=tableRow;horizontal=0;startSize=0;swimlaneHead=0;swimlaneBody=0;strokeColor=inherit;top=0;left=0;bottom=0;right=0;collapsible=0;dropTarget=0;fillColor=none;points=[[0,0.5],[1,0.5]];portConstraint=eastwest;fontSize=16;" parent="vXr8q9D6EJ9TZyVOwcwj-151" vertex="1">
          <mxGeometry width="66.25" height="17" as="geometry" />
        </mxCell>
        <mxCell id="vXr8q9D6EJ9TZyVOwcwj-153" value="" style="shape=partialRectangle;html=1;whiteSpace=wrap;connectable=0;strokeColor=#b85450;overflow=hidden;fillColor=#F19C99;top=0;left=0;bottom=0;right=0;pointerEvents=1;fontSize=16;" parent="vXr8q9D6EJ9TZyVOwcwj-152" vertex="1">
          <mxGeometry width="22" height="17" as="geometry">
            <mxRectangle width="22" height="17" as="alternateBounds" />
          </mxGeometry>
        </mxCell>
        <mxCell id="vXr8q9D6EJ9TZyVOwcwj-154" value="" style="shape=partialRectangle;html=1;whiteSpace=wrap;connectable=0;strokeColor=inherit;overflow=hidden;fillColor=none;top=0;left=0;bottom=0;right=0;pointerEvents=1;fontSize=16;" parent="vXr8q9D6EJ9TZyVOwcwj-152" vertex="1">
          <mxGeometry x="22" width="22" height="17" as="geometry">
            <mxRectangle width="22" height="17" as="alternateBounds" />
          </mxGeometry>
        </mxCell>
        <mxCell id="vXr8q9D6EJ9TZyVOwcwj-155" value="" style="shape=partialRectangle;html=1;whiteSpace=wrap;connectable=0;strokeColor=inherit;overflow=hidden;fillColor=none;top=0;left=0;bottom=0;right=0;pointerEvents=1;fontSize=16;opacity=40;" parent="vXr8q9D6EJ9TZyVOwcwj-152" vertex="1">
          <mxGeometry x="44" width="22" height="17" as="geometry">
            <mxRectangle width="22" height="17" as="alternateBounds" />
          </mxGeometry>
        </mxCell>
        <mxCell id="vXr8q9D6EJ9TZyVOwcwj-156" value="" style="shape=tableRow;horizontal=0;startSize=0;swimlaneHead=0;swimlaneBody=0;strokeColor=inherit;top=0;left=0;bottom=0;right=0;collapsible=0;dropTarget=0;fillColor=none;points=[[0,0.5],[1,0.5]];portConstraint=eastwest;fontSize=16;" parent="vXr8q9D6EJ9TZyVOwcwj-151" vertex="1">
          <mxGeometry y="17" width="66.25" height="16" as="geometry" />
        </mxCell>
        <mxCell id="vXr8q9D6EJ9TZyVOwcwj-157" value="" style="shape=partialRectangle;html=1;whiteSpace=wrap;connectable=0;strokeColor=inherit;overflow=hidden;fillColor=none;top=0;left=0;bottom=0;right=0;pointerEvents=1;fontSize=16;" parent="vXr8q9D6EJ9TZyVOwcwj-156" vertex="1">
          <mxGeometry width="22" height="16" as="geometry">
            <mxRectangle width="22" height="16" as="alternateBounds" />
          </mxGeometry>
        </mxCell>
        <mxCell id="vXr8q9D6EJ9TZyVOwcwj-158" value="" style="shape=partialRectangle;html=1;whiteSpace=wrap;connectable=0;strokeColor=inherit;overflow=hidden;fillColor=none;top=0;left=0;bottom=0;right=0;pointerEvents=1;fontSize=16;" parent="vXr8q9D6EJ9TZyVOwcwj-156" vertex="1">
          <mxGeometry x="22" width="22" height="16" as="geometry">
            <mxRectangle width="22" height="16" as="alternateBounds" />
          </mxGeometry>
        </mxCell>
        <mxCell id="vXr8q9D6EJ9TZyVOwcwj-159" value="" style="shape=partialRectangle;html=1;whiteSpace=wrap;connectable=0;strokeColor=inherit;overflow=hidden;fillColor=#F19C99;top=0;left=0;bottom=0;right=0;pointerEvents=1;fontSize=16;" parent="vXr8q9D6EJ9TZyVOwcwj-156" vertex="1">
          <mxGeometry x="44" width="22" height="16" as="geometry">
            <mxRectangle width="22" height="16" as="alternateBounds" />
          </mxGeometry>
        </mxCell>
        <mxCell id="vXr8q9D6EJ9TZyVOwcwj-160" value="" style="shape=tableRow;horizontal=0;startSize=0;swimlaneHead=0;swimlaneBody=0;strokeColor=inherit;top=0;left=0;bottom=0;right=0;collapsible=0;dropTarget=0;fillColor=none;points=[[0,0.5],[1,0.5]];portConstraint=eastwest;fontSize=16;" parent="vXr8q9D6EJ9TZyVOwcwj-151" vertex="1">
          <mxGeometry y="33" width="66.25" height="17" as="geometry" />
        </mxCell>
        <mxCell id="vXr8q9D6EJ9TZyVOwcwj-161" value="" style="shape=partialRectangle;html=1;whiteSpace=wrap;connectable=0;strokeColor=inherit;overflow=hidden;fillColor=#F8CECC;top=0;left=0;bottom=0;right=0;pointerEvents=1;fontSize=16;" parent="vXr8q9D6EJ9TZyVOwcwj-160" vertex="1">
          <mxGeometry width="22" height="17" as="geometry">
            <mxRectangle width="22" height="17" as="alternateBounds" />
          </mxGeometry>
        </mxCell>
        <mxCell id="vXr8q9D6EJ9TZyVOwcwj-162" value="" style="shape=partialRectangle;html=1;whiteSpace=wrap;connectable=0;strokeColor=inherit;overflow=hidden;fillColor=#F19C99;top=0;left=0;bottom=0;right=0;pointerEvents=1;fontSize=16;" parent="vXr8q9D6EJ9TZyVOwcwj-160" vertex="1">
          <mxGeometry x="22" width="22" height="17" as="geometry">
            <mxRectangle width="22" height="17" as="alternateBounds" />
          </mxGeometry>
        </mxCell>
        <mxCell id="vXr8q9D6EJ9TZyVOwcwj-163" value="" style="shape=partialRectangle;html=1;whiteSpace=wrap;connectable=0;strokeColor=inherit;overflow=hidden;fillColor=none;top=0;left=0;bottom=0;right=0;pointerEvents=1;fontSize=16;" parent="vXr8q9D6EJ9TZyVOwcwj-160" vertex="1">
          <mxGeometry x="44" width="22" height="17" as="geometry">
            <mxRectangle width="22" height="17" as="alternateBounds" />
          </mxGeometry>
        </mxCell>
        <mxCell id="cyQuYEc-j8L6qHEdlNLq-61" style="edgeStyle=none;rounded=0;orthogonalLoop=1;jettySize=auto;html=1;entryX=0;entryY=0.5;entryDx=0;entryDy=0;strokeColor=default;align=center;verticalAlign=middle;fontFamily=Helvetica;fontSize=11;fontColor=default;labelBackgroundColor=default;endArrow=openThin;endFill=0;" parent="1" source="vXr8q9D6EJ9TZyVOwcwj-164" target="vXr8q9D6EJ9TZyVOwcwj-169" edge="1">
          <mxGeometry relative="1" as="geometry" />
        </mxCell>
        <mxCell id="vXr8q9D6EJ9TZyVOwcwj-164" value="" style="shape=table;startSize=0;container=1;collapsible=0;childLayout=tableLayout;fontSize=16;" parent="1" vertex="1">
          <mxGeometry x="-685.1899999999999" y="-948" width="38.5" height="15" as="geometry" />
        </mxCell>
        <mxCell id="vXr8q9D6EJ9TZyVOwcwj-165" value="" style="shape=tableRow;horizontal=0;startSize=0;swimlaneHead=0;swimlaneBody=0;strokeColor=inherit;top=0;left=0;bottom=0;right=0;collapsible=0;dropTarget=0;fillColor=none;points=[[0,0.5],[1,0.5]];portConstraint=eastwest;fontSize=16;" parent="vXr8q9D6EJ9TZyVOwcwj-164" vertex="1">
          <mxGeometry width="38.5" height="15" as="geometry" />
        </mxCell>
        <mxCell id="vXr8q9D6EJ9TZyVOwcwj-166" value="" style="shape=partialRectangle;html=1;whiteSpace=wrap;connectable=0;strokeColor=#d6b656;overflow=hidden;fillColor=#fff2cc;top=0;left=0;bottom=0;right=0;pointerEvents=1;fontSize=16;" parent="vXr8q9D6EJ9TZyVOwcwj-165" vertex="1">
          <mxGeometry width="13" height="15" as="geometry">
            <mxRectangle width="13" height="15" as="alternateBounds" />
          </mxGeometry>
        </mxCell>
        <mxCell id="vXr8q9D6EJ9TZyVOwcwj-167" value="" style="shape=partialRectangle;html=1;whiteSpace=wrap;connectable=0;strokeColor=#d6b656;overflow=hidden;fillColor=#FFE599;top=0;left=0;bottom=0;right=0;pointerEvents=1;fontSize=16;" parent="vXr8q9D6EJ9TZyVOwcwj-165" vertex="1">
          <mxGeometry x="13" width="12" height="15" as="geometry">
            <mxRectangle width="12" height="15" as="alternateBounds" />
          </mxGeometry>
        </mxCell>
        <mxCell id="vXr8q9D6EJ9TZyVOwcwj-168" value="" style="shape=partialRectangle;html=1;whiteSpace=wrap;connectable=0;strokeColor=#d6b656;overflow=hidden;fillColor=#FFD966;top=0;left=0;bottom=0;right=0;pointerEvents=1;fontSize=16;" parent="vXr8q9D6EJ9TZyVOwcwj-165" vertex="1">
          <mxGeometry x="25" width="14" height="15" as="geometry">
            <mxRectangle width="14" height="15" as="alternateBounds" />
          </mxGeometry>
        </mxCell>
        <mxCell id="vXr8q9D6EJ9TZyVOwcwj-169" value="" style="shape=sumEllipse;perimeter=ellipsePerimeter;whiteSpace=wrap;html=1;backgroundOutline=1;" parent="1" vertex="1">
          <mxGeometry x="-626.13" y="-950.5" width="18" height="20" as="geometry" />
        </mxCell>
        <mxCell id="vXr8q9D6EJ9TZyVOwcwj-171" value="r&lt;sub&gt;1&lt;/sub&gt;,t&lt;sub&gt;1&lt;/sub&gt;" style="text;html=1;align=center;verticalAlign=middle;whiteSpace=wrap;rounded=0;fontSize=16;" parent="1" vertex="1">
          <mxGeometry x="-523.75" y="-976.5" width="50" height="28.5" as="geometry" />
        </mxCell>
        <mxCell id="vXr8q9D6EJ9TZyVOwcwj-172" value="r&lt;sub&gt;2&lt;/sub&gt;,t&lt;sub&gt;2&lt;/sub&gt;" style="text;html=1;align=center;verticalAlign=middle;whiteSpace=wrap;rounded=0;fontSize=16;" parent="1" vertex="1">
          <mxGeometry x="-528.75" y="-959.5" width="60" height="30" as="geometry" />
        </mxCell>
        <mxCell id="vXr8q9D6EJ9TZyVOwcwj-173" value="r&lt;sub&gt;3&lt;/sub&gt;,t&lt;sub&gt;3&lt;/sub&gt;" style="text;html=1;align=center;verticalAlign=middle;whiteSpace=wrap;rounded=0;fontSize=16;" parent="1" vertex="1">
          <mxGeometry x="-528.75" y="-944.5" width="60" height="30" as="geometry" />
        </mxCell>
        <mxCell id="vXr8q9D6EJ9TZyVOwcwj-174" value="r&lt;sub&gt;q&lt;/sub&gt;" style="text;html=1;align=center;verticalAlign=middle;whiteSpace=wrap;rounded=0;fontSize=16;" parent="1" vertex="1">
          <mxGeometry x="-689.9999999999999" y="-951.37" width="46.56" height="21.75" as="geometry" />
        </mxCell>
        <mxCell id="vXr8q9D6EJ9TZyVOwcwj-182" value="" style="endArrow=none;html=1;rounded=0;fontSize=12;startSize=8;endSize=8;curved=1;" parent="1" edge="1">
          <mxGeometry width="50" height="50" relative="1" as="geometry">
            <mxPoint x="-1084.9999999999998" y="-1057.5" as="sourcePoint" />
            <mxPoint x="-785" y="-1057.5" as="targetPoint" />
            <Array as="points">
              <mxPoint x="-1054.9999999999998" y="-1117.5" />
              <mxPoint x="-895" y="-1047.5" />
            </Array>
          </mxGeometry>
        </mxCell>
        <mxCell id="vXr8q9D6EJ9TZyVOwcwj-183" value="" style="endArrow=none;dashed=1;html=1;rounded=0;fontSize=12;startSize=8;endSize=8;curved=1;" parent="1" edge="1">
          <mxGeometry width="50" height="50" relative="1" as="geometry">
            <mxPoint x="-1134.63" y="-1030" as="sourcePoint" />
            <mxPoint x="-764.63" y="-1030" as="targetPoint" />
          </mxGeometry>
        </mxCell>
        <mxCell id="vXr8q9D6EJ9TZyVOwcwj-185" style="edgeStyle=none;curved=1;rounded=0;orthogonalLoop=1;jettySize=auto;html=1;exitX=1;exitY=0.25;exitDx=0;exitDy=0;fontSize=12;startSize=8;endSize=8;" parent="1" source="vXr8q9D6EJ9TZyVOwcwj-174" target="vXr8q9D6EJ9TZyVOwcwj-174" edge="1">
          <mxGeometry relative="1" as="geometry" />
        </mxCell>
        <mxCell id="vXr8q9D6EJ9TZyVOwcwj-187" value="" style="ellipse;whiteSpace=wrap;html=1;aspect=fixed;fillColor=#B9E0A5;strokeColor=#10739e;" parent="1" vertex="1">
          <mxGeometry x="-957.13" y="-1122.5" width="15" height="15" as="geometry" />
        </mxCell>
        <mxCell id="vXr8q9D6EJ9TZyVOwcwj-188" value="" style="ellipse;whiteSpace=wrap;html=1;aspect=fixed;fillColor=#fad7ac;strokeColor=#b46504;" parent="1" vertex="1">
          <mxGeometry x="-840.0000000000001" y="-1122.5" width="15" height="15" as="geometry" />
        </mxCell>
        <mxCell id="vXr8q9D6EJ9TZyVOwcwj-189" value="" style="ellipse;whiteSpace=wrap;html=1;aspect=fixed;fillColor=#F8CECC;strokeColor=#0e8088;" parent="1" vertex="1">
          <mxGeometry x="-1074.63" y="-1122.5" width="15" height="15" as="geometry" />
        </mxCell>
        <mxCell id="vXr8q9D6EJ9TZyVOwcwj-190" value="&lt;b&gt;...&lt;/b&gt;" style="text;html=1;align=center;verticalAlign=middle;whiteSpace=wrap;rounded=0;fontSize=16;" parent="1" vertex="1">
          <mxGeometry x="-916.25" y="-1130" width="60" height="30" as="geometry" />
        </mxCell>
        <mxCell id="RTiGZcTnpkVW3s7zyBWC-2" value="GRU" style="rounded=0;whiteSpace=wrap;html=1;fillColor=#f8cecc;strokeColor=#b85450;" parent="1" vertex="1">
          <mxGeometry x="-1100" y="-940" width="70" height="60" as="geometry" />
        </mxCell>
        <mxCell id="RTiGZcTnpkVW3s7zyBWC-6" value="" style="endArrow=openThin;dashed=1;html=1;rounded=0;endFill=0;" parent="1" edge="1">
          <mxGeometry width="50" height="50" relative="1" as="geometry">
            <mxPoint x="-1066" y="-810" as="sourcePoint" />
            <mxPoint x="-1066.05" y="-882.25" as="targetPoint" />
          </mxGeometry>
        </mxCell>
        <mxCell id="RTiGZcTnpkVW3s7zyBWC-7" value="" style="endArrow=openThin;dashed=1;html=1;rounded=0;endFill=0;" parent="1" edge="1">
          <mxGeometry width="50" height="50" relative="1" as="geometry">
            <mxPoint x="-967" y="-810" as="sourcePoint" />
            <mxPoint x="-966.78" y="-882.25" as="targetPoint" />
          </mxGeometry>
        </mxCell>
        <mxCell id="RTiGZcTnpkVW3s7zyBWC-8" value="" style="endArrow=openThin;dashed=1;html=1;rounded=0;endFill=0;entryX=0.5;entryY=1;entryDx=0;entryDy=0;" parent="1" edge="1">
          <mxGeometry width="50" height="50" relative="1" as="geometry">
            <mxPoint x="-806" y="-810" as="sourcePoint" />
            <mxPoint x="-806.0000000000002" y="-882.25" as="targetPoint" />
          </mxGeometry>
        </mxCell>
        <mxCell id="RTiGZcTnpkVW3s7zyBWC-10" value="" style="endArrow=openThin;dashed=1;html=1;rounded=0;endFill=0;exitX=1.008;exitY=0.411;exitDx=0;exitDy=0;exitPerimeter=0;" parent="1" edge="1">
          <mxGeometry width="50" height="50" relative="1" as="geometry">
            <mxPoint x="-941.2499999999999" y="-900.43625" as="sourcePoint" />
            <mxPoint x="-890.4" y="-900.14" as="targetPoint" />
          </mxGeometry>
        </mxCell>
        <mxCell id="RTiGZcTnpkVW3s7zyBWC-16" value="&lt;b&gt;&lt;font style=&quot;font-size: 18px; background-color: rgb(225, 213, 231);&quot;&gt;...&lt;/font&gt;&lt;/b&gt;" style="text;html=1;align=center;verticalAlign=middle;resizable=0;points=[];autosize=1;strokeColor=none;fillColor=none;fontFamily=Helvetica;fontSize=11;fontColor=default;labelBackgroundColor=default;" parent="1" vertex="1">
          <mxGeometry x="-900" y="-927.5" width="40" height="40" as="geometry" />
        </mxCell>
        <mxCell id="dOlLReOlWhgtIFspAYVA-2" style="edgeStyle=none;curved=1;rounded=0;orthogonalLoop=1;jettySize=auto;html=1;fontSize=12;startSize=8;endSize=8;endArrow=openThin;endFill=0;" edge="1" parent="1" source="RTiGZcTnpkVW3s7zyBWC-18">
          <mxGeometry relative="1" as="geometry">
            <mxPoint x="-949.6300000000001" y="-1050" as="targetPoint" />
          </mxGeometry>
        </mxCell>
        <mxCell id="RTiGZcTnpkVW3s7zyBWC-18" value="MLP" style="rounded=0;whiteSpace=wrap;html=1;fillColor=#dae8fc;strokeColor=#6c8ebf;" parent="1" vertex="1">
          <mxGeometry x="-1109.63" y="-1020" width="320" height="22" as="geometry" />
        </mxCell>
        <mxCell id="cyQuYEc-j8L6qHEdlNLq-36" value="&lt;span style=&quot;background-color: rgb(230, 208, 222);&quot;&gt;MLP&lt;/span&gt;" style="rounded=0;whiteSpace=wrap;html=1;fontFamily=Helvetica;fontSize=11;labelBackgroundColor=default;fillColor=#e1d5e7;strokeColor=#9673a6;" parent="1" vertex="1">
          <mxGeometry x="-586.57" y="-965.5" width="21.57" height="50.5" as="geometry" />
        </mxCell>
        <mxCell id="cyQuYEc-j8L6qHEdlNLq-113" style="edgeStyle=none;rounded=0;orthogonalLoop=1;jettySize=auto;html=1;entryX=0.5;entryY=1;entryDx=0;entryDy=0;strokeColor=default;align=center;verticalAlign=middle;fontFamily=Helvetica;fontSize=11;fontColor=default;labelBackgroundColor=default;endArrow=openThin;endFill=0;" parent="1" source="cyQuYEc-j8L6qHEdlNLq-41" target="cyQuYEc-j8L6qHEdlNLq-65" edge="1">
          <mxGeometry relative="1" as="geometry" />
        </mxCell>
        <mxCell id="cyQuYEc-j8L6qHEdlNLq-41" value="相对时间&lt;span style=&quot;background-color: initial;&quot;&gt;编码&lt;/span&gt;" style="rounded=1;whiteSpace=wrap;html=1;arcSize=0;fillColor=#CCE5FF;strokeColor=#23445d;" parent="1" vertex="1">
          <mxGeometry x="-528.75" y="-880" width="53.75" height="47" as="geometry" />
        </mxCell>
        <mxCell id="cyQuYEc-j8L6qHEdlNLq-49" value="" style="edgeStyle=none;rounded=0;orthogonalLoop=1;jettySize=auto;html=1;strokeColor=#000000;align=center;verticalAlign=middle;fontFamily=Helvetica;fontSize=11;fontColor=default;labelBackgroundColor=default;endArrow=classicThin;endFill=1;exitX=0;exitY=0.5;exitDx=0;exitDy=0;" parent="1" edge="1">
          <mxGeometry relative="1" as="geometry">
            <mxPoint x="-546.25" y="-944" as="sourcePoint" />
            <mxPoint x="-565" y="-943.5" as="targetPoint" />
          </mxGeometry>
        </mxCell>
        <mxCell id="cyQuYEc-j8L6qHEdlNLq-50" style="edgeStyle=none;rounded=0;orthogonalLoop=1;jettySize=auto;html=1;exitX=0.25;exitY=0;exitDx=0;exitDy=0;strokeColor=default;align=center;verticalAlign=middle;fontFamily=Helvetica;fontSize=11;fontColor=default;labelBackgroundColor=default;endArrow=openThin;endFill=0;" parent="1" source="cyQuYEc-j8L6qHEdlNLq-36" target="cyQuYEc-j8L6qHEdlNLq-36" edge="1">
          <mxGeometry relative="1" as="geometry" />
        </mxCell>
        <mxCell id="cyQuYEc-j8L6qHEdlNLq-60" value="" style="edgeStyle=none;rounded=0;orthogonalLoop=1;jettySize=auto;html=1;strokeColor=#000000;align=center;verticalAlign=middle;fontFamily=Helvetica;fontSize=11;fontColor=default;labelBackgroundColor=default;endArrow=classicThin;endFill=1;exitX=0;exitY=0.5;exitDx=0;exitDy=0;" parent="1" edge="1">
          <mxGeometry relative="1" as="geometry">
            <mxPoint x="-588.13" y="-940.84" as="sourcePoint" />
            <mxPoint x="-608.13" y="-940.84" as="targetPoint" />
          </mxGeometry>
        </mxCell>
        <mxCell id="cyQuYEc-j8L6qHEdlNLq-62" value="" style="endArrow=none;html=1;rounded=0;fontSize=12;startSize=8;endSize=8;curved=1;strokeColor=#001DBC;fillColor=#0050ef;" parent="1" edge="1">
          <mxGeometry width="50" height="50" relative="1" as="geometry">
            <mxPoint x="-526.88" y="-835" as="sourcePoint" />
            <mxPoint x="-486.88" y="-853" as="targetPoint" />
            <Array as="points">
              <mxPoint x="-516.88" y="-863" />
              <mxPoint x="-496.88" y="-823" />
            </Array>
          </mxGeometry>
        </mxCell>
        <mxCell id="cyQuYEc-j8L6qHEdlNLq-65" value="" style="shape=orEllipse;perimeter=ellipsePerimeter;whiteSpace=wrap;html=1;backgroundOutline=1;fontFamily=Helvetica;fontSize=11;fontColor=default;labelBackgroundColor=default;" parent="1" vertex="1">
          <mxGeometry x="-514.25" y="-910" width="21" height="17" as="geometry" />
        </mxCell>
        <mxCell id="cyQuYEc-j8L6qHEdlNLq-69" value="" style="endArrow=none;html=1;rounded=0;fontSize=12;startSize=8;endSize=8;curved=1;strokeColor=#B20000;fillColor=#e51400;" parent="1" edge="1">
          <mxGeometry width="50" height="50" relative="1" as="geometry">
            <mxPoint x="-518.75" y="-835" as="sourcePoint" />
            <mxPoint x="-478.75" y="-853" as="targetPoint" />
            <Array as="points">
              <mxPoint x="-508.75" y="-863" />
              <mxPoint x="-488.75" y="-823" />
            </Array>
          </mxGeometry>
        </mxCell>
        <mxCell id="cyQuYEc-j8L6qHEdlNLq-71" value="" style="edgeStyle=orthogonalEdgeStyle;rounded=0;orthogonalLoop=1;jettySize=auto;html=1;strokeColor=#000000;align=center;verticalAlign=middle;fontFamily=Helvetica;fontSize=11;fontColor=default;labelBackgroundColor=default;endArrow=classicThin;endFill=1;" parent="1" edge="1">
          <mxGeometry relative="1" as="geometry">
            <mxPoint x="-618.14" y="-950" as="sourcePoint" />
            <mxPoint x="-850" y="-1080" as="targetPoint" />
            <Array as="points">
              <mxPoint x="-618" y="-1080" />
              <mxPoint x="-835" y="-1080" />
            </Array>
          </mxGeometry>
        </mxCell>
        <mxCell id="cyQuYEc-j8L6qHEdlNLq-73" value="顺序&lt;div&gt;时间特征&lt;/div&gt;" style="text;html=1;align=center;verticalAlign=middle;whiteSpace=wrap;rounded=0;fontFamily=Helvetica;fontSize=11;fontColor=default;labelBackgroundColor=default;" parent="1" vertex="1">
          <mxGeometry x="-1150" y="-980" width="60" height="43.5" as="geometry" />
        </mxCell>
        <mxCell id="cyQuYEc-j8L6qHEdlNLq-75" value="全局&lt;div&gt;时间特征&lt;/div&gt;" style="text;html=1;align=center;verticalAlign=middle;whiteSpace=wrap;rounded=0;fontFamily=Helvetica;fontSize=11;fontColor=default;labelBackgroundColor=default;" parent="1" vertex="1">
          <mxGeometry x="-690" y="-863" width="60" height="30" as="geometry" />
        </mxCell>
        <mxCell id="cyQuYEc-j8L6qHEdlNLq-114" style="edgeStyle=none;rounded=0;orthogonalLoop=1;jettySize=auto;html=1;entryX=0.417;entryY=0.817;entryDx=0;entryDy=0;entryPerimeter=0;strokeColor=default;align=center;verticalAlign=middle;fontFamily=Helvetica;fontSize=11;fontColor=default;labelBackgroundColor=default;endArrow=openThin;endFill=0;" parent="1" source="cyQuYEc-j8L6qHEdlNLq-65" target="vXr8q9D6EJ9TZyVOwcwj-173" edge="1">
          <mxGeometry relative="1" as="geometry" />
        </mxCell>
        <mxCell id="cyQuYEc-j8L6qHEdlNLq-120" value="" style="endArrow=openThin;dashed=1;html=1;rounded=0;endFill=0;" parent="1" edge="1">
          <mxGeometry width="50" height="50" relative="1" as="geometry">
            <mxPoint x="-1035" y="-898" as="sourcePoint" />
            <mxPoint x="-993.7500000000001" y="-897.70375" as="targetPoint" />
          </mxGeometry>
        </mxCell>
        <mxCell id="cyQuYEc-j8L6qHEdlNLq-121" value="" style="endArrow=openThin;dashed=1;html=1;rounded=0;endFill=0;" parent="1" edge="1">
          <mxGeometry width="50" height="50" relative="1" as="geometry">
            <mxPoint x="-866.94" y="-900.23" as="sourcePoint" />
            <mxPoint x="-831.4000000000001" y="-900.43375" as="targetPoint" />
          </mxGeometry>
        </mxCell>
        <mxCell id="cyQuYEc-j8L6qHEdlNLq-122" value="" style="endArrow=openThin;dashed=1;html=1;rounded=0;endFill=0;exitX=0.61;exitY=0.017;exitDx=0;exitDy=0;entryX=0.945;entryY=1.018;entryDx=0;entryDy=0;entryPerimeter=0;exitPerimeter=0;edgeStyle=orthogonalEdgeStyle;" parent="1" target="RTiGZcTnpkVW3s7zyBWC-18" edge="1">
          <mxGeometry width="50" height="50" relative="1" as="geometry">
            <mxPoint x="-800.5" y="-922.7987499999999" as="sourcePoint" />
            <mxPoint x="-719.1500000000001" y="-959.70375" as="targetPoint" />
            <Array as="points">
              <mxPoint x="-807" y="-923" />
            </Array>
          </mxGeometry>
        </mxCell>
        <mxCell id="u76cb6Os-tU85eXCcmFj-1" value="" style="shape=tableRow;horizontal=0;startSize=0;swimlaneHead=0;swimlaneBody=0;strokeColor=inherit;top=0;left=0;bottom=0;right=0;collapsible=0;dropTarget=0;fillColor=none;points=[[0,0.5],[1,0.5]];portConstraint=eastwest;fontSize=16;" parent="1" vertex="1">
          <mxGeometry x="-1085" y="-810" width="40" height="10" as="geometry" />
        </mxCell>
        <mxCell id="u76cb6Os-tU85eXCcmFj-6" value="" style="shape=table;startSize=0;container=1;collapsible=0;childLayout=tableLayout;fontSize=16;" parent="1" vertex="1">
          <mxGeometry x="-986" y="-809" width="40" height="10" as="geometry" />
        </mxCell>
        <mxCell id="u76cb6Os-tU85eXCcmFj-7" value="" style="shape=tableRow;horizontal=0;startSize=0;swimlaneHead=0;swimlaneBody=0;strokeColor=inherit;top=0;left=0;bottom=0;right=0;collapsible=0;dropTarget=0;fillColor=none;points=[[0,0.5],[1,0.5]];portConstraint=eastwest;fontSize=16;" parent="u76cb6Os-tU85eXCcmFj-6" vertex="1">
          <mxGeometry width="40" height="10" as="geometry" />
        </mxCell>
        <mxCell id="u76cb6Os-tU85eXCcmFj-8" value="" style="shape=partialRectangle;html=1;whiteSpace=wrap;connectable=0;strokeColor=#d6b656;overflow=hidden;fillColor=#D5E8D4;top=0;left=0;bottom=0;right=0;pointerEvents=1;fontSize=16;" parent="u76cb6Os-tU85eXCcmFj-7" vertex="1">
          <mxGeometry width="10" height="10" as="geometry">
            <mxRectangle width="10" height="10" as="alternateBounds" />
          </mxGeometry>
        </mxCell>
        <mxCell id="u76cb6Os-tU85eXCcmFj-9" value="" style="shape=partialRectangle;html=1;whiteSpace=wrap;connectable=0;strokeColor=#d6b656;overflow=hidden;fillColor=#D5E8D4;top=0;left=0;bottom=0;right=0;pointerEvents=1;fontSize=16;" parent="u76cb6Os-tU85eXCcmFj-7" vertex="1">
          <mxGeometry x="10" width="10" height="10" as="geometry">
            <mxRectangle width="10" height="10" as="alternateBounds" />
          </mxGeometry>
        </mxCell>
        <mxCell id="u76cb6Os-tU85eXCcmFj-10" value="" style="shape=partialRectangle;html=1;whiteSpace=wrap;connectable=0;strokeColor=#d6b656;overflow=hidden;fillColor=#9AC7BF;top=0;left=0;bottom=0;right=0;pointerEvents=1;fontSize=16;" parent="u76cb6Os-tU85eXCcmFj-7" vertex="1">
          <mxGeometry x="20" width="10" height="10" as="geometry">
            <mxRectangle width="10" height="10" as="alternateBounds" />
          </mxGeometry>
        </mxCell>
        <mxCell id="u76cb6Os-tU85eXCcmFj-11" style="shape=partialRectangle;html=1;whiteSpace=wrap;connectable=0;strokeColor=#333300;overflow=hidden;fillColor=#67AB9F;top=0;left=0;bottom=0;right=0;pointerEvents=1;fontSize=16;" parent="u76cb6Os-tU85eXCcmFj-7" vertex="1">
          <mxGeometry x="30" width="10" height="10" as="geometry">
            <mxRectangle width="10" height="10" as="alternateBounds" />
          </mxGeometry>
        </mxCell>
        <mxCell id="u76cb6Os-tU85eXCcmFj-12" value="" style="shape=table;startSize=0;container=1;collapsible=0;childLayout=tableLayout;fontSize=16;" parent="1" vertex="1">
          <mxGeometry x="-821" y="-810" width="40" height="10" as="geometry" />
        </mxCell>
        <mxCell id="u76cb6Os-tU85eXCcmFj-13" value="" style="shape=tableRow;horizontal=0;startSize=0;swimlaneHead=0;swimlaneBody=0;strokeColor=inherit;top=0;left=0;bottom=0;right=0;collapsible=0;dropTarget=0;fillColor=none;points=[[0,0.5],[1,0.5]];portConstraint=eastwest;fontSize=16;" parent="u76cb6Os-tU85eXCcmFj-12" vertex="1">
          <mxGeometry width="40" height="10" as="geometry" />
        </mxCell>
        <mxCell id="u76cb6Os-tU85eXCcmFj-14" value="" style="shape=partialRectangle;html=1;whiteSpace=wrap;connectable=0;strokeColor=#d6b656;overflow=hidden;fillColor=#FFF2CC;top=0;left=0;bottom=0;right=0;pointerEvents=1;fontSize=16;" parent="u76cb6Os-tU85eXCcmFj-13" vertex="1">
          <mxGeometry width="10" height="10" as="geometry">
            <mxRectangle width="10" height="10" as="alternateBounds" />
          </mxGeometry>
        </mxCell>
        <mxCell id="u76cb6Os-tU85eXCcmFj-15" value="" style="shape=partialRectangle;html=1;whiteSpace=wrap;connectable=0;strokeColor=#d6b656;overflow=hidden;fillColor=#FFE599;top=0;left=0;bottom=0;right=0;pointerEvents=1;fontSize=16;" parent="u76cb6Os-tU85eXCcmFj-13" vertex="1">
          <mxGeometry x="10" width="10" height="10" as="geometry">
            <mxRectangle width="10" height="10" as="alternateBounds" />
          </mxGeometry>
        </mxCell>
        <mxCell id="u76cb6Os-tU85eXCcmFj-16" value="" style="shape=partialRectangle;html=1;whiteSpace=wrap;connectable=0;strokeColor=#d6b656;overflow=hidden;fillColor=#FFD966;top=0;left=0;bottom=0;right=0;pointerEvents=1;fontSize=16;" parent="u76cb6Os-tU85eXCcmFj-13" vertex="1">
          <mxGeometry x="20" width="10" height="10" as="geometry">
            <mxRectangle width="10" height="10" as="alternateBounds" />
          </mxGeometry>
        </mxCell>
        <mxCell id="u76cb6Os-tU85eXCcmFj-17" style="shape=partialRectangle;html=1;whiteSpace=wrap;connectable=0;strokeColor=#333300;overflow=hidden;fillColor=#FFB570;top=0;left=0;bottom=0;right=0;pointerEvents=1;fontSize=16;" parent="u76cb6Os-tU85eXCcmFj-13" vertex="1">
          <mxGeometry x="30" width="10" height="10" as="geometry">
            <mxRectangle width="10" height="10" as="alternateBounds" />
          </mxGeometry>
        </mxCell>
        <mxCell id="dOlLReOlWhgtIFspAYVA-1" value="&lt;font style=&quot;font-size: 9px;&quot;&gt;similarity&lt;/font&gt;" style="text;html=1;align=center;verticalAlign=middle;whiteSpace=wrap;rounded=0;fontSize=16;" vertex="1" parent="1">
          <mxGeometry x="-640.63" y="-927.5" width="47" height="17" as="geometry" />
        </mxCell>
        <mxCell id="dOlLReOlWhgtIFspAYVA-3" value="GRU" style="rounded=0;whiteSpace=wrap;html=1;fillColor=#f8cecc;strokeColor=#b85450;" vertex="1" parent="1">
          <mxGeometry x="-990" y="-940" width="70" height="60" as="geometry" />
        </mxCell>
        <mxCell id="dOlLReOlWhgtIFspAYVA-4" value="GRU" style="rounded=0;whiteSpace=wrap;html=1;fillColor=#f8cecc;strokeColor=#b85450;" vertex="1" parent="1">
          <mxGeometry x="-827" y="-940" width="70" height="60" as="geometry" />
        </mxCell>
        <mxCell id="dOlLReOlWhgtIFspAYVA-6" value="" style="shape=table;startSize=0;container=1;collapsible=0;childLayout=tableLayout;fontSize=16;" vertex="1" parent="1">
          <mxGeometry x="-1087" y="-809" width="40" height="10" as="geometry" />
        </mxCell>
        <mxCell id="dOlLReOlWhgtIFspAYVA-7" value="" style="shape=tableRow;horizontal=0;startSize=0;swimlaneHead=0;swimlaneBody=0;strokeColor=inherit;top=0;left=0;bottom=0;right=0;collapsible=0;dropTarget=0;fillColor=none;points=[[0,0.5],[1,0.5]];portConstraint=eastwest;fontSize=16;" vertex="1" parent="dOlLReOlWhgtIFspAYVA-6">
          <mxGeometry width="40" height="10" as="geometry" />
        </mxCell>
        <mxCell id="dOlLReOlWhgtIFspAYVA-8" value="" style="shape=partialRectangle;html=1;whiteSpace=wrap;connectable=0;strokeColor=#d6b656;overflow=hidden;fillColor=#D4E1F5;top=0;left=0;bottom=0;right=0;pointerEvents=1;fontSize=16;" vertex="1" parent="dOlLReOlWhgtIFspAYVA-7">
          <mxGeometry width="10" height="10" as="geometry">
            <mxRectangle width="10" height="10" as="alternateBounds" />
          </mxGeometry>
        </mxCell>
        <mxCell id="dOlLReOlWhgtIFspAYVA-9" value="" style="shape=partialRectangle;html=1;whiteSpace=wrap;connectable=0;strokeColor=#d6b656;overflow=hidden;fillColor=#A9C4EB;top=0;left=0;bottom=0;right=0;pointerEvents=1;fontSize=16;" vertex="1" parent="dOlLReOlWhgtIFspAYVA-7">
          <mxGeometry x="10" width="10" height="10" as="geometry">
            <mxRectangle width="10" height="10" as="alternateBounds" />
          </mxGeometry>
        </mxCell>
        <mxCell id="dOlLReOlWhgtIFspAYVA-10" value="" style="shape=partialRectangle;html=1;whiteSpace=wrap;connectable=0;strokeColor=#d6b656;overflow=hidden;fillColor=#7EA6E0;top=0;left=0;bottom=0;right=0;pointerEvents=1;fontSize=16;" vertex="1" parent="dOlLReOlWhgtIFspAYVA-7">
          <mxGeometry x="20" width="10" height="10" as="geometry">
            <mxRectangle width="10" height="10" as="alternateBounds" />
          </mxGeometry>
        </mxCell>
        <mxCell id="dOlLReOlWhgtIFspAYVA-11" style="shape=partialRectangle;html=1;whiteSpace=wrap;connectable=0;strokeColor=#333300;overflow=hidden;fillColor=#A9C4EB;top=0;left=0;bottom=0;right=0;pointerEvents=1;fontSize=16;" vertex="1" parent="dOlLReOlWhgtIFspAYVA-7">
          <mxGeometry x="30" width="10" height="10" as="geometry">
            <mxRectangle width="10" height="10" as="alternateBounds" />
          </mxGeometry>
        </mxCell>
      </root>
    </mxGraphModel>
  </diagram>
</mxfile>
